Coordinates
version=1
nRows=6
nColumns=63
inDegrees=yes

Units are S.I. units (second, meters, Newtons, ...)
If the header above contains a line with 'inDegrees', this indicates whether rotational values are in degrees (yes) or radians (no).

endheader
time	pelvis_tilt	pelvis_list	pelvis_rotation	pelvis_tx	pelvis_ty	pelvis_tz	hip_flexion_r	hip_adduction_r	hip_rotation_r	knee_angle_r	knee_angle_r_beta	ankle_angle_r	subtalar_angle_r	mtp_angle_r	hip_flexion_l	hip_adduction_l	hip_rotation_l	knee_angle_l	knee_angle_l_beta	ankle_angle_l	subtalar_angle_l	mtp_angle_l	L5_S1_Flex_Ext	L5_S1_Lat_Bending	L5_S1_axial_rotation	L4_L5_Flex_Ext	L4_L5_Lat_Bending	L4_L5_axial_rotation	L3_L4_Flex_Ext	L3_L4_Lat_Bending	L3_L4_axial_rotation	L2_L3_Flex_Ext	L2_L3_Lat_Bending	L2_L3_axial_rotation	L1_L2_Flex_Ext	L1_L2_Lat_Bending	L1_L2_axial_rotation	L1_T12_Flex_Ext	L1_T12_Lat_Bending	L1_T12_axial_rotation	Abs_r3	Abs_r2	Abs_r1	Abs_t1	Abs_t2	neck_flexion	neck_bending	neck_rotation	arm_flex_r	arm_add_r	arm_rot_r	elbow_flex_r	pro_sup_r	wrist_flex_r	wrist_dev_r	arm_flex_l	arm_add_l	arm_rot_l	elbow_flex_l	pro_sup_l	wrist_flex_l	wrist_dev_l
      0.00000000	     -2.27051081	     -3.28815563	     88.10540533	      0.23023982	      0.88947236	      0.45826162	     -0.53125713	     -1.80341518	     20.23151706	      6.15864418	      0.10748862	     35.13562338	    -10.89517222	      0.00000000	      0.96070982	      1.11323460	     15.96849771	      6.78583080	      0.11843509	     36.30500642	    -16.22135922	      0.00000000	      0.23670844	     -0.43149770	      2.14037581	      0.43959125	     -0.57389193	      2.27414930	      0.38888830	     -1.04914350	      2.27414930	      0.27053408	     -1.04914350	      1.87282883	      0.21980746	     -0.87991010	      1.73905534	      0.13525520	     -0.66838993	      1.60528186	      1.69078473	     -4.88118823	     11.90412813	      0.00000000	      0.00000000	     21.17763556	     -0.48348696	    -16.75784648	     35.90907031	    -14.90896541	     59.83128161	     69.98030836	     61.29335194	     30.65021900	     30.99548379	     48.06264306	    -15.13713747	     79.75968604	     63.58998319	     83.93720694	     -5.70679368	     24.47959258
      0.01666667	     -1.73678967	     -3.98378346	     88.70149853	      0.22801918	      0.88805865	      0.46164950	      0.54324866	     -1.38945269	     18.42036836	      6.11507778	      0.10672824	     36.24705908	     -9.78228986	      0.00000000	      1.93959860	      0.57341510	     16.37731939	      6.34773461	      0.11078887	     36.23496920	    -15.82824517	      0.00000000	      0.29137726	     -0.38760373	      2.09984262	      0.54111672	     -0.51551296	      2.23108278	      0.47870371	     -0.94241970	      2.23108278	      0.33301507	     -0.94241970	      1.83736229	      0.27057293	     -0.79040152	      1.70612213	      0.16649297	     -0.60039817	      1.57488197	      2.08127866	     -4.38465087	     11.67869470	      0.00000000	      0.00000000	     22.19296928	      0.05991817	    -17.03879274	     32.38927073	    -15.20155533	     58.09414783	     74.37259119	      1.79906380	    -34.92777785	     32.65501628	     48.09657141	    -13.93874127	     79.77326409	     60.92751852	     87.94703231	     -6.30194277	     19.39395044
      0.03333333	     -1.18035959	     -4.37609892	     89.08911347	      0.22601269	      0.88704236	      0.46367446	      1.23374075	     -0.92142532	     17.95182081	      6.16196150	      0.10754652	     36.76316189	     -9.95918676	      0.00000000	      2.40040811	      0.03372027	     16.66840444	      5.81638503	      0.10151507	     36.29799467	    -15.52839312	      0.00000000	      0.32748450	     -0.32501724	      1.96029411	      0.60817146	     -0.43227293	      2.08281249	      0.53802428	     -0.79024693	      2.08281249	      0.37428203	     -0.79024693	      1.71525735	      0.30410210	     -0.66277516	      1.59273897	      0.18712464	     -0.50345171	      1.47022058	      2.33918902	     -3.67666006	     10.90256776	      0.00000000	      0.00000000	     22.64448409	      0.22264382	    -17.24666815	     31.55103929	    -13.79129346	     55.60347843	     70.58343566	      1.53448265	    -37.14603733	     31.71907147	     46.55429722	    -13.16102543	     77.67494941	     58.71938420	     87.96022844	     -6.71491267	     17.58800397
      0.05000000	     -0.61596671	     -4.82261753	     89.61701247	      0.22365270	      0.88578366	      0.46441209	      1.64386862	     -0.55727628	     17.33655514	      5.75103723	      0.10037454	     36.98569233	     -9.54745249	      0.00000000	      2.84058685	     -0.47978168	     17.40139975	      5.34483951	      0.09328505	     36.59405543	    -15.35573859	      0.00000000	      0.37849002	     -0.23656163	      1.74363860	      0.70289381	     -0.31462696	      1.85261601	      0.62182125	     -0.57517594	      1.85261601	      0.43257624	     -0.57517594	      1.52568377	      0.35146583	     -0.48239647	      1.41670636	      0.21626920	     -0.36643396	      1.30772895	      2.70351634	     -2.67603244	      9.69759479	      0.00000000	      0.00000000	     23.36923538	     -0.11335580	    -16.45336684	     31.49465269	    -12.09655459	     54.27097711	     67.62084795	      1.33157129	    -44.80971269	     30.95546510	     43.48857788	    -12.47492316	     72.63161225	     56.52814955	     86.70697285	     -3.39465139	     15.83624245
      0.06666667	     -0.12450857	     -5.04503372	     90.12408974	      0.22182576	      0.88494588	      0.46398669	      1.73510419	     -0.21123978	     17.37905024	      5.39380159	      0.09413960	     36.87157885	     -9.81580170	      0.00000000	      2.90213092	     -0.94555287	     18.06568618	      4.81357247	      0.08401269	     36.86754324	    -15.22033379	      0.00000000	      0.41329452	     -0.17257786	      1.49122008	      0.76752925	     -0.22952855	      1.58442134	      0.67900157	     -0.41960581	      1.58442134	      0.47235431	     -0.41960581	      1.30481757	      0.38378529	     -0.35192077	      1.21161632	      0.23615649	     -0.26732310	      1.11841506	      2.95212143	     -1.95223526	      8.29371875	      0.00000000	      0.00000000	     23.62920294	     -0.60109459	    -16.95527826	     32.14857440	    -10.70526009	     55.02685421	     64.28293869	      1.21167850	    -47.03204723	     30.54580096	     40.36882932	    -11.78608657	     68.08738893	     54.45393257	     79.16489595	     -0.38396780	     16.68529844
      0.08333333	      0.22554419	     -5.13900520	     90.53582463	      0.22070092	      0.88427745	      0.46262769	      1.57107729	      0.04950639	     18.58254839	      4.97536947	      0.08683658	     36.35437156	    -11.30111513	      0.00000000	      2.67206692	     -1.31672366	     18.76218626	      4.17002856	      0.07278073	     37.00840010	    -15.33218191	      0.00000000	      0.44264263	     -0.13623515	      1.30549637	      0.82203164	     -0.18119275	      1.38708990	      0.72721758	     -0.33124214	      1.38708990	      0.50589627	     -0.33124214	      1.14230933	      0.41103795	     -0.27781072	      1.06071580	      0.25292600	     -0.21102825	      0.97912228	      3.16175207	     -1.54111926	      7.26077918	      0.00000000	      0.00000000	     23.67684275	     -1.05672745	    -18.06384043	     32.66578947	     -9.44205393	     56.08986252	     61.12128527	      1.12024619	    -48.34618400	     30.59157058	     38.46937294	    -11.07540159	     67.34993357	     51.92745038	     63.58954122	      0.81283249	     17.03504425
